<svg id="Layer_1" data-name="Layer 1" xmlns="http://www.w3.org/2000/svg" viewBox="0 0 30.44 30.44"><path d="M27.85,3.72C26.94.15,21-1,15.4,1A27.93,27.93,0,0,0,5.85,6.45c-3.09,2.89-3.59,5.4-3.38,6.45.71,3.71,5.8,6.14,7.89,7.94h0c-.62.3-5.13,2.58-6.18,4.92s.17,4.22,1,4.46A6.33,6.33,0,0,0,12,27.46a6.93,6.93,0,0,0,.68-6.16,8.29,8.29,0,0,1,3.08-.18c3.53.41,4.23,2.62,4.09,3.54a2.33,2.33,0,0,1-1.12,1.59c-.24.15-.32.2-.3.32s.15.16.36.12a2.76,2.76,0,0,0,1.92-2.45c.08-2.17-2-4.59-5.66-4.52a9.73,9.73,0,0,0-3.15.42L11.78,20c-2.27-2.42-6.47-4.13-6.29-7.39.07-1.18.48-4.29,8.06-8.07,6.21-3.1,11.18-2.25,12-.36,1.23,2.7-2.65,7.71-9.1,8.43-2.46.28-3.76-.67-4.08-1s-.39-.39-.51-.32-.08.44,0,.64a3.8,3.8,0,0,0,2.33,1.83A12.32,12.32,0,0,0,21.79,13C25.7,11.44,28.75,7.24,27.85,3.72ZM11.22,21.94a5.12,5.12,0,0,1,0,3c0,.1-.07.2-.11.3s-.08.2-.13.3A5.52,5.52,0,0,1,10,26.9c-1.17,1.28-2.8,1.76-3.5,1.36s-.38-2.24,1-3.68A13.64,13.64,0,0,1,11,22.05h0Z"/></svg>